<?xml version="1.0" standalone="no"?>
<!DOCTYPE svg PUBLIC "-//W3C//DTD SVG 20010904//EN"
 "http://www.w3.org/TR/2001/REC-SVG-20010904/DTD/svg10.dtd">
<svg version="1.0" xmlns="http://www.w3.org/2000/svg"
 width="300.000000pt" height="288.000000pt" viewBox="0 0 300.000000 288.000000"
 preserveAspectRatio="xMidYMid meet">
<metadata>
Created by potrace 1.10, written by Peter Selinger 2001-2011
</metadata>
<g transform="translate(0.000000,288.000000) scale(0.100000,-0.100000)"
fill="#434242" stroke="none">
<path d="M1304 2795 c-314 -159 -622 -239 -981 -252 l-171 -6 -7 -125 c-17
-294 26 -618 122 -917 91 -283 213 -516 407 -775 91 -122 343 -374 471 -471
102 -78 312 -212 330 -212 14 0 157 86 235 141 276 194 552 487 723 767 157
259 276 566 333 862 37 196 55 505 38 670 l-7 60 -171 6 c-356 13 -650 88
-982 252 -94 47 -173 84 -175 84 -2 -1 -76 -39 -165 -84z m176 -32 l1 -98 87
-42 c48 -23 112 -52 141 -63 30 -12 60 -24 65 -28 20 -12 140 -51 144 -47 5 5
5 5 -163 71 -66 26 -151 64 -190 84 l-70 37 5 76 5 76 50 -31 c28 -17 84 -46
125 -65 41 -18 88 -41 104 -50 16 -9 26 -11 22 -4 -4 6 7 3 26 -7 50 -29 196
-74 209 -66 7 4 9 3 6 -2 -3 -6 35 -18 86 -28 51 -10 97 -22 102 -26 10 -7 39
-13 159 -30 33 -5 129 -12 215 -16 86 -4 157 -7 158 -8 8 -6 2 -399 -7 -486
-11 -111 -55 -351 -71 -385 -5 -11 -11 -29 -12 -40 -2 -11 -6 -27 -9 -35 -3
-8 -23 -64 -44 -125 -41 -120 -144 -344 -171 -371 -9 -9 -18 -24 -18 -33 -1
-9 -28 -56 -61 -105 -32 -48 -70 -106 -84 -127 -14 -21 -35 -46 -45 -55 -11
-8 -13 -12 -5 -8 8 4 -2 -10 -22 -31 -21 -21 -38 -42 -38 -46 0 -9 -258 -269
-290 -292 -73 -52 -95 -69 -95 -75 0 -8 -124 -92 -136 -92 -5 0 -9 -7 -9 -16
0 -8 -4 -13 -9 -10 -4 3 -41 -17 -81 -45 -63 -43 -72 -47 -67 -27 12 47 11
162 -1 166 -9 3 -12 -26 -12 -102 0 -97 -7 -125 -25 -95 -4 6 -64 48 -134 94
-69 47 -138 95 -153 107 -14 13 -46 39 -70 58 -113 92 -281 262 -380 386 -198
249 -363 568 -447 864 -63 225 -101 453 -101 613 l0 77 40 0 c44 0 47 -5 24
-38 -24 -35 -3 -25 51 24 l50 46 -45 -8 c-47 -7 -120 -7 -128 1 -2 2 -2 12 2
21 6 15 18 16 88 11 l81 -5 -29 24 c-49 41 -63 47 -57 24 5 -17 0 -20 -30 -20
-23 0 -37 6 -41 16 -11 28 -6 110 7 123 9 11 9 13 0 7 -8 -4 -13 -1 -13 8 0
13 14 16 75 16 l75 0 0 -42 c0 -24 -4 -50 -10 -58 -7 -12 -12 -12 -29 5 -39
35 -29 10 16 -40 l45 -50 -7 93 c-6 80 -4 93 10 98 30 12 36 -9 27 -100 -4
-47 -5 -85 -2 -84 11 5 80 85 80 93 0 4 -11 0 -24 -8 -28 -19 -31 -14 -35 53
l-2 46 128 12 c132 13 321 51 383 77 19 8 46 17 60 19 14 3 53 16 87 30 35 14
67 26 72 26 6 0 54 20 107 45 53 25 97 45 99 45 9 0 130 74 133 82 2 4 8 8 13
8 5 0 9 -44 9 -97z"/>
<path d="M1428 2654 c-38 -20 -36 -28 2 -9 17 9 30 18 30 20 0 7 -1 6 -32 -11z"/>
<path d="M1485 1455 c0 -655 1 -921 2 -592 2 329 2 865 0 1190 -1 326 -2 57
-2 -598z"/>
<path d="M1285 2585 c-49 -24 -87 -44 -83 -44 12 -1 178 77 178 83 0 7 10 12
-95 -39z"/>
<path d="M1144 2524 c-19 -15 -19 -15 1 -6 11 5 27 12 35 15 13 5 13 6 -1 6
-8 1 -24 -6 -35 -15z"/>
<path d="M1070 2500 c-25 -11 -37 -19 -27 -19 18 -1 77 26 77 34 0 3 -1 5 -2
4 -2 -1 -23 -9 -48 -19z"/>
<path d="M1948 2469 c14 -5 30 -5 40 0 12 7 5 9 -24 9 -33 0 -36 -2 -16 -9z"/>
<path d="M2005 2460 c-3 -5 2 -11 12 -12 28 -2 36 -4 66 -16 16 -7 36 -12 45
-12 9 0 49 -7 87 -15 116 -26 406 -55 345 -35 -14 4 -50 8 -80 9 -61 1 -200
23 -298 47 -35 8 -66 13 -69 10 -3 -3 -19 2 -35 10 -17 9 -32 13 -36 10 -3 -3
-11 -1 -18 5 -8 7 -14 7 -19 -1z"/>
<path d="M865 2440 c-19 -8 -19 -9 3 -9 12 -1 22 4 22 9 0 6 -1 10 -2 9 -2 0
-12 -4 -23 -9z"/>
<path d="M798 2424 c-4 -3 -50 -14 -105 -25 -88 -17 -91 -18 -33 -13 67 5 128
20 145 35 5 5 7 9 4 9 -3 0 -8 -3 -11 -6z"/>
<path d="M435 2358 l-50 -50 34 6 c18 3 61 6 95 7 46 1 55 3 36 9 -14 4 -42 8
-63 9 -42 1 -43 21 -1 21 15 0 23 4 19 10 -4 6 -11 8 -16 5 -5 -4 -9 -2 -9 4
0 5 5 11 12 13 7 3 8 7 3 10 -6 3 -32 -17 -60 -44z"/>
<path d="M545 2380 l-30 -8 32 -1 c17 0 35 4 38 9 7 11 3 11 -40 0z"/>
<path d="M2621 2220 c-1 -141 -15 -276 -36 -365 -60 -257 -86 -350 -110 -402
-19 -40 -19 -56 0 -23 19 32 67 187 98 315 43 174 69 414 57 530 -6 63 -7 58
-9 -55z"/>
<path d="M380 2288 c0 -2 26 -26 57 -54 48 -41 54 -44 35 -17 -12 17 -22 34
-22 37 0 3 17 6 38 6 20 0 44 5 52 10 11 7 -4 10 -50 10 -36 0 -75 3 -87 6
-13 4 -23 4 -23 2z"/>
<path d="M298 2225 c-43 -49 -47 -61 -17 -44 26 14 38 -1 38 -46 -1 -37 10
-117 16 -123 3 -3 4 54 3 126 0 73 -2 132 -2 132 -1 -1 -18 -20 -38 -45z"/>
<path d="M365 2255 c4 -11 11 -54 14 -95 l6 -75 6 53 c7 64 13 71 39 47 41
-37 18 3 -26 45 -28 27 -44 37 -39 25z"/>
<path d="M341 1974 c1 -16 5 -40 9 -54 6 -17 7 -9 3 25 -6 56 -14 74 -12 29z"/>
<path d="M362 1860 c0 -14 2 -19 5 -12 2 6 2 18 0 25 -3 6 -5 1 -5 -13z"/>
<path d="M381 1754 c0 -11 3 -14 6 -6 3 7 2 16 -1 19 -3 4 -6 -2 -5 -13z"/>
<path d="M471 1464 c0 -11 3 -14 6 -6 3 7 2 16 -1 19 -3 4 -6 -2 -5 -13z"/>
<path d="M2439 1362 c-25 -66 -129 -263 -172 -326 -23 -34 -46 -69 -52 -78
-24 -41 -148 -208 -154 -208 -4 0 -21 -20 -39 -45 -30 -43 -31 -45 -7 -29 14
9 24 19 21 21 -2 3 16 25 40 51 24 25 44 50 44 55 0 6 15 28 33 51 66 80 156
224 219 346 70 139 92 189 86 195 -2 3 -11 -12 -19 -33z"/>
<path d="M501 1385 c0 -5 6 -21 14 -35 8 -14 14 -20 14 -15 0 6 -6 21 -14 35
-8 14 -14 21 -14 15z"/>
<path d="M536 1307 c3 -10 9 -15 12 -12 3 3 0 11 -7 18 -10 9 -11 8 -5 -6z"/>
<path d="M570 1230 c11 -22 23 -40 25 -40 3 0 -4 18 -15 40 -11 22 -23 40 -25
40 -3 0 4 -18 15 -40z"/>
<path d="M600 1174 c0 -6 7 -19 16 -30 14 -18 14 -18 3 6 -14 31 -19 36 -19
24z"/>
<path d="M640 1104 c0 -6 7 -19 16 -30 14 -18 14 -18 3 6 -14 31 -19 36 -19
24z"/>
<path d="M680 1030 c6 -11 13 -20 16 -20 2 0 0 9 -6 20 -6 11 -13 20 -16 20
-2 0 0 -9 6 -20z"/>
<path d="M735 946 c10 -14 19 -26 22 -26 7 0 -17 39 -28 46 -6 3 -3 -5 6 -20z"/>
<path d="M838 802 c24 -29 49 -55 55 -59 7 -4 -8 16 -31 45 -24 29 -49 55 -55
59 -7 4 8 -16 31 -45z"/>
<path d="M900 721 c0 -5 7 -12 16 -15 14 -5 15 -4 4 9 -14 17 -20 19 -20 6z"/>
<path d="M1970 640 c-9 -6 -10 -10 -3 -10 6 0 15 5 18 10 8 12 4 12 -15 0z"/>
<path d="M1889 562 c-8 -9 -26 -24 -39 -33 -14 -9 -23 -19 -20 -22 3 -3 24 10
48 28 23 19 39 36 34 39 -5 3 -15 -3 -23 -12z"/>
<path d="M1137 489 c7 -7 15 -10 18 -7 3 3 -2 9 -12 12 -14 6 -15 5 -6 -5z"/>
<path d="M1768 461 c-48 -37 -61 -55 -32 -44 21 8 90 71 84 76 -3 2 -26 -12
-52 -32z"/>
<path d="M1260 391 c25 -22 59 -47 75 -57 41 -23 32 -15 -50 46 -56 41 -61 44
-25 11z"/>
<path d="M1690 385 c-11 -13 -10 -14 4 -9 9 3 16 10 16 15 0 13 -6 11 -20 -6z"/>
<path d="M1569 308 c-39 -25 -58 -43 -50 -46 8 -2 18 3 23 12 5 9 15 16 23 16
8 0 18 6 22 13 4 7 24 20 43 30 19 9 28 17 19 17 -9 0 -45 -19 -80 -42z"/>
<path d="M1570 56 c-29 -11 -32 -14 -17 -22 23 -13 -70 -10 -137 5 -27 6 -55
7 -63 2 -26 -14 -2 -20 114 -26 101 -6 113 -4 153 16 35 19 46 20 62 10 12 -7
17 -8 13 -2 -3 6 2 11 12 11 10 0 24 4 32 9 21 14 -130 11 -169 -3z"/>
<path d="M1310 30 c0 -5 5 -10 10 -10 6 0 10 5 10 10 0 6 -4 10 -10 10 -5 0
-10 -4 -10 -10z"/>
</g>
</svg>
